# This file uses centimeters as units for non-parametric coordinates.

mtllib boulder colored.mtl
g default
v -4.171008 1.114386 4.824761
v -1.934451 1.814483 5.377548
v -5.025296 2.247167 5.377547
v -6.935540 1.114386 5.377547
v -5.025296 -0.018395 5.377548
v -1.934451 0.414289 5.377548
v -1.406476 1.114386 6.271975
v -3.316720 2.247167 6.271975
v -6.407565 1.814483 6.271975
v -6.407565 0.414289 6.271975
v -3.316719 -0.018395 6.271975
v -4.171008 1.114386 6.824761
vt 1.000000 0.500000
vt 0.838104 0.676208
vt 0.088104 0.823792
vt 0.176208 0.500000
vt 0.088104 0.176208
vt 0.838104 0.323792
vt 0.676208 0.500000
vt 0.588104 0.823792
vt 0.338104 0.676208
vt 0.338104 0.323792
vt 0.588104 0.176208
vt 0.500000 0.500000
vt 1.088104 0.823792
vt 1.176208 0.500000
vt 1.088104 0.176208
vn 0.066897 0.477871 -0.875879
vn 0.066897 0.477871 -0.875879
vn 0.066897 0.477871 -0.875879
vn -0.186163 0.313932 -0.931016
vn -0.186163 0.313932 -0.931016
vn -0.186163 0.313932 -0.931016
vn -0.186163 -0.313932 -0.931016
vn -0.186163 -0.313932 -0.931016
vn -0.186163 -0.313932 -0.931016
vn 0.066897 -0.477871 -0.875879
vn 0.066897 -0.477871 -0.875879
vn 0.066897 -0.477871 -0.875879
vn 0.239940 -0.000000 -0.970788
vn 0.239940 -0.000000 -0.970788
vn 0.239940 -0.000000 -0.970788
vn 0.134017 0.957340 -0.256005
vn 0.134017 0.957340 -0.256006
vn 0.134017 0.957340 -0.256005
vn -0.478031 0.806119 -0.348796
vn -0.478031 0.806119 -0.348796
vn -0.478031 0.806119 -0.348796
vn -0.478031 -0.806119 -0.348796
vn -0.478031 -0.806119 -0.348796
vn -0.478031 -0.806119 -0.348796
vn 0.134017 -0.957340 -0.256005
vn 0.134017 -0.957340 -0.256005
vn 0.134017 -0.957340 -0.256005
vn 0.861158 0.000000 -0.508337
vn 0.861158 0.000000 -0.508337
vn 0.861158 0.000000 -0.508337
vn 0.478031 0.806119 0.348796
vn 0.478031 0.806119 0.348796
vn 0.478031 0.806119 0.348796
vn -0.134017 0.957340 0.256006
vn -0.134017 0.957340 0.256006
vn -0.134017 0.957340 0.256006
vn -0.861158 0.000000 0.508337
vn -0.861158 0.000000 0.508337
vn -0.861158 0.000000 0.508337
vn -0.134017 -0.957340 0.256005
vn -0.134017 -0.957340 0.256005
vn -0.134017 -0.957340 0.256005
vn 0.478031 -0.806119 0.348796
vn 0.478031 -0.806119 0.348796
vn 0.478031 -0.806119 0.348796
vn 0.186163 0.313932 0.931016
vn 0.186163 0.313932 0.931016
vn 0.186163 0.313932 0.931016
vn -0.066897 0.477871 0.875879
vn -0.066897 0.477871 0.875879
vn -0.066897 0.477871 0.875879
vn -0.239940 -0.000000 0.970788
vn -0.239940 -0.000000 0.970788
vn -0.239939 -0.000000 0.970788
vn -0.066897 -0.477871 0.875879
vn -0.066897 -0.477871 0.875879
vn -0.066897 -0.477871 0.875879
vn 0.186163 -0.313932 0.931016
vn 0.186163 -0.313932 0.931016
vn 0.186163 -0.313932 0.931016
s off
g Boulder1
usemtl lambert2SG
f 1/1/1 3/13/2 2/2/3
f 1/1/4 4/14/5 3/13/6
f 1/1/7 5/15/8 4/14/9
f 1/1/10 6/6/11 5/15/12
f 1/1/13 2/2/14 6/6/15
f 2/2/16 3/13/17 8/8/18
f 3/3/19 4/4/20 9/9/21
f 4/4/22 5/5/23 10/10/24
f 5/15/25 6/6/26 11/11/27
f 6/6/28 2/2/29 7/7/30
f 2/2/31 8/8/32 7/7/33
f 3/3/34 9/9/35 8/8/36
f 4/4/37 10/10/38 9/9/39
f 5/5/40 11/11/41 10/10/42
f 6/6/43 7/7/44 11/11/45
f 7/7/46 8/8/47 12/12/48
f 8/8/49 9/9/50 12/12/51
f 9/9/52 10/10/53 12/12/54
f 10/10/55 11/11/56 12/12/57
f 11/11/58 7/7/59 12/12/60
